<svg width="30" height="30" viewBox="0 0 30 30" fill="none" xmlns="http://www.w3.org/2000/svg">
<path d="M26.25 5.62499V11.25C26.25 11.4986 26.1512 11.7371 25.9754 11.9129C25.7996 12.0887 25.5611 12.1875 25.3125 12.1875H19.6875C19.4389 12.1875 19.2004 12.0887 19.0246 11.9129C18.8488 11.7371 18.75 11.4986 18.75 11.25C18.75 11.0014 18.8488 10.7629 19.0246 10.5871C19.2004 10.4113 19.4389 10.3125 19.6875 10.3125H23.0496L21.3352 8.59804C19.5928 6.84773 17.2271 5.86025 14.7574 5.85234H14.7047C12.2557 5.8466 9.90283 6.80516 8.15508 8.5207C7.97604 8.68783 7.7387 8.77826 7.49384 8.77265C7.24898 8.76703 7.01604 8.66581 6.84485 8.49064C6.67367 8.31547 6.57783 8.08027 6.57784 7.83534C6.57785 7.59042 6.67372 7.35522 6.84492 7.18007C8.96312 5.10983 11.8123 3.95845 14.7741 3.97578C17.7359 3.99311 20.5714 5.17776 22.6652 7.27265L24.375 8.9871V5.62499C24.375 5.37635 24.4738 5.1379 24.6496 4.96208C24.8254 4.78627 25.0639 4.68749 25.3125 4.68749C25.5611 4.68749 25.7996 4.78627 25.9754 4.96208C26.1512 5.1379 26.25 5.37635 26.25 5.62499ZM21.8449 21.4793C20.0799 23.2034 17.7063 24.1622 15.239 24.1477C12.7717 24.1332 10.4095 23.1467 8.66484 21.4019L6.95039 19.6875H10.3125C10.5611 19.6875 10.7996 19.5887 10.9754 19.4129C11.1512 19.2371 11.25 18.9986 11.25 18.75C11.25 18.5014 11.1512 18.2629 10.9754 18.0871C10.7996 17.9113 10.5611 17.8125 10.3125 17.8125H4.6875C4.43886 17.8125 4.2004 17.9113 4.02459 18.0871C3.84877 18.2629 3.75 18.5014 3.75 18.75V24.375C3.75 24.6236 3.84877 24.8621 4.02459 25.0379C4.2004 25.2137 4.43886 25.3125 4.6875 25.3125C4.93614 25.3125 5.1746 25.2137 5.35041 25.0379C5.52623 24.8621 5.625 24.6236 5.625 24.375V21.0129L7.33945 22.7273C9.43033 24.8287 12.27 26.014 15.2344 26.0226H15.2965C18.2356 26.0302 21.0595 24.8796 23.1562 22.8199C23.3275 22.6448 23.4233 22.4096 23.4233 22.1646C23.4233 21.9197 23.3275 21.6845 23.1563 21.5093C22.9851 21.3342 22.7522 21.233 22.5073 21.2273C22.2625 21.2217 22.0251 21.3122 21.8461 21.4793H21.8449Z" fill="#009966"/>
</svg>
