<svg width="22" height="22" viewBox="0 0 22 22" fill="none" xmlns="http://www.w3.org/2000/svg">
    <path d="M10.0833 1.75354C10.2741 1.75359 10.4571 1.82667 10.592 1.95667C10.7272 2.08683 10.803 2.26379 10.803 2.44788V4.35608L16.4114 3.18518H16.6819L16.7717 3.20276H16.7903L16.8616 3.22815H16.8801L16.9612 3.27209L16.9788 3.28967C17.0031 3.29901 17.0251 3.31348 17.0422 3.33264C17.0422 3.33478 17.0428 3.33692 17.0442 3.3385C17.0459 3.34013 17.0487 3.34143 17.051 3.34143L17.1233 3.41077C17.1233 3.4194 17.1232 3.41969 17.1321 3.42834L17.1858 3.49768L17.2307 3.57581L20.1116 10.5162C20.1468 10.5988 20.1658 10.6877 20.1663 10.777C20.1662 12.7985 17.96 13.5533 16.5647 13.5533C15.1693 13.5533 12.9642 12.7985 12.9641 10.777C12.9646 10.6877 12.9826 10.5988 13.0178 10.5162L15.386 4.79846L10.803 5.77893V17.024H12.2434C12.4344 17.024 12.6182 17.097 12.7532 17.2272C12.8882 17.3573 12.9641 17.5344 12.9641 17.7184C12.964 17.9022 12.888 18.0786 12.7532 18.2086C12.6182 18.3388 12.4344 18.4117 12.2434 18.4117H7.92212C7.73124 18.4117 7.54831 18.3388 7.41333 18.2086C7.27837 18.0786 7.2025 17.9023 7.20239 17.7184C7.20239 17.5343 7.27827 17.3573 7.41333 17.2272C7.5483 17.0971 7.73128 17.0241 7.92212 17.024H9.36255V6.09143L4.58228 7.11584L7.14868 13.2936C7.18374 13.376 7.20193 13.4642 7.20239 13.5533C7.20239 15.575 4.99621 16.3297 3.60083 16.3297C2.20542 16.3296 0.000244141 15.5748 0.000244141 13.5533C0.000704493 13.4642 0.0188847 13.376 0.0539551 13.2936L2.92603 6.31702H2.93481L2.97095 6.23889L2.9895 6.22229C3.00109 6.1927 3.01934 6.16587 3.04321 6.14417H3.052L3.10571 6.08264C3.10807 6.08264 3.11087 6.08228 3.11255 6.08069C3.11413 6.07917 3.11536 6.07697 3.11548 6.07483L3.19653 6.01331H3.19946L3.20239 6.01135L3.20435 6.00842L3.20532 6.00452L3.27759 5.97034H3.29517L3.38501 5.93518H3.44849L9.36255 4.66858V2.44788C9.36255 2.26383 9.43843 2.08683 9.57349 1.95667C9.7085 1.8265 9.89225 1.75354 10.0833 1.75354ZM1.44946 13.6744C1.54847 14.6287 2.9255 14.9419 3.60083 14.942C4.27601 14.942 5.65414 14.6289 5.75317 13.6744L3.60083 8.47815L1.44946 13.6744ZM14.4133 10.8981C14.5123 11.8524 15.8895 12.1646 16.5647 12.1647C17.2399 12.1647 18.6171 11.8525 18.7161 10.8981L16.5647 5.70081L14.4133 10.8981Z" fill="#99A1AF"/>
</svg>