<svg width="30" height="30" viewBox="0 0 30 30" fill="none" xmlns="http://www.w3.org/2000/svg">
<path d="M17.8125 14.0625H15.9375V6.5625H16.875C17.8696 6.5625 18.8234 6.95759 19.5266 7.66085C20.2299 8.36411 20.625 9.31794 20.625 10.3125C20.625 10.5611 20.7238 10.7996 20.8996 10.9754C21.0754 11.1512 21.3139 11.25 21.5625 11.25C21.8111 11.25 22.0496 11.1512 22.2254 10.9754C22.4012 10.7996 22.5 10.5611 22.5 10.3125C22.4984 8.82113 21.9053 7.39129 20.8508 6.33674C19.7962 5.28218 18.3664 4.68905 16.875 4.6875H15.9375V2.8125C15.9375 2.56386 15.8387 2.3254 15.6629 2.14959C15.4871 1.97377 15.2486 1.875 15 1.875C14.7514 1.875 14.5129 1.97377 14.3371 2.14959C14.1613 2.3254 14.0625 2.56386 14.0625 2.8125V4.6875H13.125C11.6332 4.6875 10.2024 5.28013 9.14752 6.33502C8.09263 7.38992 7.5 8.82066 7.5 10.3125C7.5 11.8043 8.09263 13.2351 9.14752 14.29C10.2024 15.3449 11.6332 15.9375 13.125 15.9375H14.0625V23.4375H12.1875C11.1929 23.4375 10.2391 23.0424 9.53585 22.3391C8.83259 21.6359 8.4375 20.6821 8.4375 19.6875C8.4375 19.4389 8.33873 19.2004 8.16291 19.0246C7.9871 18.8488 7.74864 18.75 7.5 18.75C7.25136 18.75 7.0129 18.8488 6.83709 19.0246C6.66127 19.2004 6.5625 19.4389 6.5625 19.6875C6.56405 21.1789 7.15718 22.6087 8.21174 23.6633C9.26629 24.7178 10.6961 25.3109 12.1875 25.3125H14.0625V27.1875C14.0625 27.4361 14.1613 27.6746 14.3371 27.8504C14.5129 28.0262 14.7514 28.125 15 28.125C15.2486 28.125 15.4871 28.0262 15.6629 27.8504C15.8387 27.6746 15.9375 27.4361 15.9375 27.1875V25.3125H17.8125C19.3043 25.3125 20.7351 24.7199 21.79 23.665C22.8449 22.6101 23.4375 21.1793 23.4375 19.6875C23.4375 18.1957 22.8449 16.7649 21.79 15.71C20.7351 14.6551 19.3043 14.0625 17.8125 14.0625ZM13.125 14.0625C12.1304 14.0625 11.1766 13.6674 10.4733 12.9642C9.77009 12.2609 9.375 11.3071 9.375 10.3125C9.375 9.31794 9.77009 8.36411 10.4733 7.66085C11.1766 6.95759 12.1304 6.5625 13.125 6.5625H14.0625V14.0625H13.125ZM17.8125 23.4375H15.9375V15.9375H17.8125C18.8071 15.9375 19.7609 16.3326 20.4641 17.0359C21.1674 17.7391 21.5625 18.6929 21.5625 19.6875C21.5625 20.6821 21.1674 21.6359 20.4641 22.3391C19.7609 23.0424 18.8071 23.4375 17.8125 23.4375Z" fill="#454545"/>
</svg>
