<svg width="22" height="22" viewBox="0 0 22 22" fill="none" xmlns="http://www.w3.org/2000/svg">
<path d="M14.1928 2.63037C12.4955 2.63037 11.0094 3.36028 10.083 4.59405C9.15664 3.36028 7.67052 2.63037 5.97316 2.63037C4.62203 2.63189 3.32667 3.1693 2.37128 4.1247C1.41588 5.08009 0.878476 6.37544 0.876953 7.72657C0.876953 13.4803 9.40816 18.1376 9.77147 18.33C9.86723 18.3815 9.97426 18.4084 10.083 18.4084C10.1917 18.4084 10.2988 18.3815 10.3945 18.33C10.7578 18.1376 19.289 13.4803 19.289 7.72657C19.2875 6.37544 18.7501 5.08009 17.7947 4.1247C16.8393 3.1693 15.544 2.63189 14.1928 2.63037ZM10.083 16.9984C8.58208 16.1238 2.1921 12.1397 2.1921 7.72657C2.19341 6.72418 2.59219 5.76321 3.30099 5.05441C4.00979 4.3456 4.97076 3.94682 5.97316 3.94552C7.57188 3.94552 8.91416 4.79708 9.47474 6.16483C9.52428 6.28544 9.60856 6.3886 9.71686 6.46119C9.82517 6.53379 9.95261 6.57255 10.083 6.57255C10.2134 6.57255 10.3408 6.53379 10.4491 6.46119C10.5574 6.3886 10.6417 6.28544 10.6913 6.16483C11.2518 4.79461 12.5941 3.94552 14.1928 3.94552C15.1952 3.94682 16.1562 4.3456 16.865 5.05441C17.5738 5.76321 17.9726 6.72418 17.9739 7.72657C17.9739 12.1331 11.5823 16.123 10.083 16.9984Z" fill="#99A1AF"/>
</svg>
