<svg width="78" height="78" viewBox="0 0 78 78" fill="none" xmlns="http://www.w3.org/2000/svg">
<path d="M68.1525 20.155L41.34 5.48434C40.6236 5.0885 39.8185 4.88086 39 4.88086C38.1815 4.88086 37.3764 5.0885 36.66 5.48434L9.8475 20.1611C9.08179 20.5801 8.4426 21.197 7.99668 21.9473C7.55077 22.6976 7.31448 23.5539 7.3125 24.4268V53.5671C7.31448 54.4399 7.55077 55.2962 7.99668 56.0465C8.4426 56.7969 9.08179 57.4137 9.8475 57.8327L36.66 72.5095C37.3764 72.9053 38.1815 73.113 39 73.113C39.8185 73.113 40.6236 72.9053 41.34 72.5095L68.1525 57.8327C68.9182 57.4137 69.5574 56.7969 70.0033 56.0465C70.4492 55.2962 70.6855 54.4399 70.6875 53.5671V24.4298C70.6872 23.5554 70.4516 22.6972 70.0056 21.9451C69.5596 21.193 68.9196 20.5747 68.1525 20.155ZM39 9.74996L63.4786 23.1562L54.4081 28.1226L29.9264 14.7164L39 9.74996ZM39 36.5625L14.5214 23.1562L24.8503 17.5012L49.3289 30.9075L39 36.5625ZM12.1875 27.4218L36.5625 40.7611V66.9002L12.1875 53.5701V27.4218ZM65.8125 53.5579L41.4375 66.9002V40.7732L51.1875 35.4382V46.3125C51.1875 46.9589 51.4443 47.5789 51.9014 48.036C52.3585 48.4932 52.9785 48.75 53.625 48.75C54.2715 48.75 54.8915 48.4932 55.3486 48.036C55.8057 47.5789 56.0625 46.9589 56.0625 46.3125V32.7691L65.8125 27.4218V53.5549V53.5579Z" fill="#454545"/>
</svg>
