<svg width="30" height="30" viewBox="0 0 30 30" fill="none" xmlns="http://www.w3.org/2000/svg">
<path d="M26.2125 7.75188L15.9 2.1093C15.6245 1.95706 15.3148 1.8772 15 1.8772C14.6852 1.8772 14.3755 1.95706 14.1 2.1093L3.7875 7.75423C3.49299 7.91537 3.24715 8.15262 3.07565 8.44121C2.90414 8.7298 2.81326 9.05915 2.8125 9.39485V20.6027C2.81326 20.9384 2.90414 21.2677 3.07565 21.5563C3.24715 21.8449 3.49299 22.0822 3.7875 22.2433L14.1 27.8882C14.3755 28.0405 14.6852 28.1203 15 28.1203C15.3148 28.1203 15.6245 28.0405 15.9 27.8882L26.2125 22.2433C26.507 22.0822 26.7528 21.8449 26.9244 21.5563C27.0959 21.2677 27.1867 20.9384 27.1875 20.6027V9.39602C27.1874 9.05972 27.0968 8.72964 26.9252 8.44038C26.7537 8.15111 26.5075 7.91331 26.2125 7.75188ZM15 3.74993L24.4148 8.90618L20.9262 10.8163L11.5102 5.66009L15 3.74993ZM15 14.0624L5.58516 8.90618L9.55781 6.73118L18.9727 11.8874L15 14.0624ZM4.6875 10.5468L14.0625 15.6773V25.7308L4.6875 20.6038V10.5468ZM25.3125 20.5991L15.9375 25.7308V15.682L19.6875 13.63V17.8124C19.6875 18.0611 19.7863 18.2995 19.9621 18.4753C20.1379 18.6512 20.3764 18.7499 20.625 18.7499C20.8736 18.7499 21.1121 18.6512 21.2879 18.4753C21.4637 18.2995 21.5625 18.0611 21.5625 17.8124V12.6034L25.3125 10.5468V20.598V20.5991Z" fill="#009966"/>
</svg>
