<svg width="30" height="30" viewBox="0 0 30 30" fill="none" xmlns="http://www.w3.org/2000/svg">
<path d="M15 2.8125C12.5895 2.8125 10.2332 3.52728 8.22899 4.86646C6.22477 6.20564 4.66267 8.10907 3.74022 10.336C2.81778 12.563 2.57643 15.0135 3.04668 17.3777C3.51694 19.7418 4.67769 21.9134 6.38214 23.6179C8.08659 25.3223 10.2582 26.4831 12.6223 26.9533C14.9865 27.4236 17.437 27.1822 19.664 26.2598C21.8909 25.3373 23.7944 23.7752 25.1335 21.771C26.4727 19.7668 27.1875 17.4105 27.1875 15C27.1841 11.7687 25.899 8.67076 23.6141 6.3859C21.3292 4.10104 18.2313 2.81591 15 2.8125ZM25.3125 15C25.3149 17.4112 24.4681 19.7462 22.9207 21.5953L8.40469 7.07812C9.91055 5.82536 11.7421 5.02739 13.6849 4.77759C15.6277 4.52779 17.6015 4.83649 19.3753 5.66757C21.1491 6.49865 22.6495 7.81773 23.701 9.47045C24.7524 11.1232 25.3114 13.0412 25.3125 15ZM4.68751 15C4.68511 12.5888 5.5319 10.2538 7.0793 8.40469L21.5953 22.9219C20.0895 24.1746 18.258 24.9726 16.3151 25.2224C14.3723 25.4722 12.3985 25.1635 10.6247 24.3324C8.8509 23.5013 7.35049 22.1823 6.29905 20.5296C5.24761 18.8768 4.68862 16.9588 4.68751 15Z" fill="#009966"/>
</svg>
