<svg width="30" height="30" viewBox="0 0 30 30" fill="none" xmlns="http://www.w3.org/2000/svg">
<path d="M24.375 4.6875H5.625C5.12772 4.6875 4.65081 4.88504 4.29917 5.23667C3.94754 5.58831 3.75 6.06522 3.75 6.5625V13.125C3.75 19.3031 6.74063 23.0473 9.24961 25.1004C11.952 27.3105 14.6402 28.0617 14.7574 28.0922C14.9186 28.136 15.0885 28.136 15.2496 28.0922C15.3668 28.0617 18.0516 27.3105 20.7574 25.1004C23.2594 23.0473 26.25 19.3031 26.25 13.125V6.5625C26.25 6.06522 26.0525 5.58831 25.7008 5.23667C25.3492 4.88504 24.8723 4.6875 24.375 4.6875ZM24.375 13.125C24.375 17.4691 22.7742 20.9953 19.6172 23.6039C18.2429 24.7356 16.6799 25.6163 15 26.2055C13.342 25.6265 11.7984 24.7615 10.4391 23.6496C7.24453 21.0363 5.625 17.4961 5.625 13.125V6.5625H24.375V13.125Z" fill="#009966"/>
</svg>
