<svg width="22" height="22" viewBox="0 0 22 22" fill="none" xmlns="http://www.w3.org/2000/svg">
<path d="M8.54836 17.7544C8.54836 18.0146 8.47123 18.2688 8.32672 18.4851C8.18221 18.7014 7.97681 18.8699 7.7365 18.9695C7.49619 19.069 7.23176 19.0951 6.97664 19.0443C6.72153 18.9936 6.48719 18.8683 6.30326 18.6844C6.11934 18.5005 5.99408 18.2661 5.94334 18.011C5.89259 17.7559 5.91864 17.4915 6.01818 17.2512C6.11772 17.0108 6.28628 16.8054 6.50256 16.6609C6.71883 16.5164 6.9731 16.4393 7.23321 16.4393C7.58201 16.4393 7.91653 16.5779 8.16317 16.8245C8.4098 17.0711 8.54836 17.4056 8.54836 17.7544ZM15.7817 16.4393C15.5216 16.4393 15.2673 16.5164 15.051 16.6609C14.8348 16.8054 14.6662 17.0108 14.5666 17.2512C14.4671 17.4915 14.4411 17.7559 14.4918 18.011C14.5425 18.2661 14.6678 18.5005 14.8517 18.6844C15.0357 18.8683 15.27 18.9936 15.5251 19.0443C15.7802 19.0951 16.0447 19.069 16.285 18.9695C16.5253 18.8699 16.7307 18.7014 16.8752 18.4851C17.0197 18.2688 17.0968 18.0146 17.0968 17.7544C17.0968 17.4056 16.9583 17.0711 16.7116 16.8245C16.465 16.5779 16.1305 16.4393 15.7817 16.4393ZM19.7033 6.094L17.5958 13.6791C17.4799 14.0935 17.2321 14.4587 16.8899 14.7195C16.5476 14.9803 16.1297 15.1223 15.6995 15.1241H7.57515C7.14365 15.124 6.72404 14.9826 6.38034 14.7217C6.03664 14.4608 5.78769 14.0947 5.67148 13.6791L2.78801 3.28781H1.31505C1.14065 3.28781 0.973389 3.21853 0.85007 3.09521C0.726751 2.97189 0.657471 2.80463 0.657471 2.63023C0.657471 2.45583 0.726751 2.28857 0.85007 2.16526C0.973389 2.04194 1.14065 1.97266 1.31505 1.97266H3.28777C3.43153 1.97263 3.57134 2.01972 3.6858 2.10671C3.80026 2.1937 3.88305 2.31581 3.92151 2.45433L4.70073 5.26053H19.0696C19.1709 5.26051 19.2709 5.28393 19.3618 5.32896C19.4526 5.37398 19.5318 5.4394 19.5931 5.5201C19.6545 5.60079 19.6964 5.69459 19.7155 5.79414C19.7346 5.8937 19.7304 5.99632 19.7033 6.094ZM18.204 6.57568H5.06651L6.94142 13.3273C6.97987 13.4658 7.06267 13.588 7.17712 13.6749C7.29158 13.7619 7.43139 13.809 7.57515 13.809H15.6995C15.8432 13.809 15.9831 13.7619 16.0975 13.6749C16.212 13.588 16.2948 13.4658 16.3332 13.3273L17.2686 9.9515L18.204 6.57568Z" fill="#99A1AF"/>
</svg>
