<svg width="22" height="22" viewBox="0 0 22 22" fill="none" xmlns="http://www.w3.org/2000/svg">
<g clip-path="url(#clip0_156_448)">
<path d="M8.5483 17.7545C8.5483 18.0146 8.47117 18.2689 8.32666 18.4852C8.18215 18.7014 7.97675 18.87 7.73644 18.9695C7.49613 19.0691 7.2317 19.0951 6.97658 19.0444C6.72147 18.9936 6.48713 18.8684 6.3032 18.6845C6.11928 18.5005 5.99402 18.2662 5.94327 18.0111C5.89253 17.756 5.91857 17.4915 6.01811 17.2512C6.11766 17.0109 6.28622 16.8055 6.5025 16.661C6.71877 16.5165 6.97304 16.4394 7.23315 16.4394C7.58195 16.4394 7.91647 16.5779 8.1631 16.8246C8.40974 17.0712 8.5483 17.4057 8.5483 17.7545ZM15.7816 16.4394C15.5215 16.4394 15.2672 16.5165 15.051 16.661C14.8347 16.8055 14.6661 17.0109 14.5666 17.2512C14.467 17.4915 14.441 17.756 14.4917 18.0111C14.5425 18.2662 14.6677 18.5005 14.8517 18.6845C15.0356 18.8684 15.2699 18.9936 15.525 19.0444C15.7802 19.0951 16.0446 19.0691 16.2849 18.9695C16.5252 18.87 16.7306 18.7014 16.8751 18.4852C17.0196 18.2689 17.0968 18.0146 17.0968 17.7545C17.0968 17.4057 16.9582 17.0712 16.7116 16.8246C16.4649 16.5779 16.1304 16.4394 15.7816 16.4394ZM19.7032 6.09407L17.5957 13.6792C17.4798 14.0935 17.232 14.4588 16.8898 14.7196C16.5476 14.9803 16.1297 15.1224 15.6994 15.1242H7.57509C7.14359 15.124 6.72398 14.9827 6.38028 14.7218C6.03657 14.4609 5.78763 14.0948 5.67141 13.6792L2.78795 3.28787H1.31498C1.14058 3.28787 0.973328 3.21859 0.850009 3.09527C0.72669 2.97195 0.65741 2.80469 0.65741 2.63029C0.65741 2.45589 0.72669 2.28864 0.850009 2.16532C0.973328 2.042 1.14058 1.97272 1.31498 1.97272H3.28771C3.43147 1.97269 3.57128 2.01978 3.68574 2.10677C3.80019 2.19376 3.88299 2.31587 3.92144 2.45439L4.70067 5.26059H19.0695C19.1709 5.26057 19.2709 5.28399 19.3617 5.32902C19.4525 5.37405 19.5317 5.43946 19.5931 5.52016C19.6544 5.60086 19.6963 5.69465 19.7154 5.7942C19.7345 5.89376 19.7303 5.99639 19.7032 6.09407ZM18.204 6.57574H5.06645L6.94136 13.3274C6.97981 13.4659 7.06261 13.588 7.17706 13.675C7.29152 13.762 7.43133 13.8091 7.57509 13.8091H15.6994C15.8432 13.8091 15.983 13.762 16.0975 13.675C16.2119 13.588 16.2947 13.4659 16.3332 13.3274L17.2686 9.95156L18.204 6.57574Z" fill="#99A1AF"/>
</g>
<defs>
<clipPath id="clip0_156_448">
<rect width="21.0424" height="21.0424" fill="white"/>
</clipPath>
</defs>
</svg>
