<svg width="30" height="30" viewBox="0 0 30 30" fill="none" xmlns="http://www.w3.org/2000/svg">
<path d="M12.1875 4.6875H6.5625C6.06522 4.6875 5.58831 4.88504 5.23667 5.23667C4.88504 5.58831 4.6875 6.06522 4.6875 6.5625V15.9375C4.6875 16.4348 4.88504 16.9117 5.23667 17.2633C5.58831 17.615 6.06522 17.8125 6.5625 17.8125H12.1875C12.6848 17.8125 13.1617 17.615 13.5133 17.2633C13.865 16.9117 14.0625 16.4348 14.0625 15.9375V6.5625C14.0625 6.06522 13.865 5.58831 13.5133 5.23667C13.1617 4.88504 12.6848 4.6875 12.1875 4.6875ZM12.1875 15.9375H6.5625V6.5625H12.1875V15.9375ZM23.4375 4.6875H17.8125C17.3152 4.6875 16.8383 4.88504 16.4867 5.23667C16.135 5.58831 15.9375 6.06522 15.9375 6.5625V9C15.9375 9.49728 16.135 9.97419 16.4867 10.3258C16.8383 10.6775 17.3152 10.875 17.8125 10.875H23.4375C23.9348 10.875 24.4117 10.6775 24.7633 10.3258C25.115 9.97419 25.3125 9.49728 25.3125 9V6.5625C25.3125 6.06522 25.115 5.58831 24.7633 5.23667C24.4117 4.88504 23.9348 4.6875 23.4375 4.6875ZM23.4375 9H17.8125V6.5625H23.4375V9ZM12.1875 18.9508H6.5625C6.06522 18.9508 5.58831 19.1484 5.23667 19.5C4.88504 19.8516 4.6875 20.3285 4.6875 20.8258V23.4375C4.6875 23.9348 4.88504 24.4117 5.23667 24.7633C5.58831 25.115 6.06522 25.3125 6.5625 25.3125H12.1875C12.6848 25.3125 13.1617 25.115 13.5133 24.7633C13.865 24.4117 14.0625 23.9348 14.0625 23.4375V20.8258C14.0625 20.3285 13.865 19.8516 13.5133 19.5C13.1617 19.1484 12.6848 18.9508 12.1875 18.9508ZM12.1875 23.4375H6.5625V20.8258H12.1875V23.4375ZM23.4375 12.125H17.8125C17.3152 12.125 16.8383 12.3225 16.4867 12.6742C16.135 13.0258 15.9375 13.5027 15.9375 14V23.4375C15.9375 23.9348 16.135 24.4117 16.4867 24.7633C16.8383 25.115 17.3152 25.3125 17.8125 25.3125H23.4375C23.9348 25.3125 24.4117 25.115 24.7633 24.7633C25.115 24.4117 25.3125 23.9348 25.3125 23.4375V14C25.3125 13.5027 25.115 13.0258 24.7633 12.6742C24.4117 12.3225 23.9348 12.125 23.4375 12.125ZM23.4375 23.4375H17.8125V14H23.4375V23.4375Z" fill="#454545"/>
</svg>
