<svg width="25" height="25" viewBox="0 0 25 25" fill="none" xmlns="http://www.w3.org/2000/svg">
<path d="M23.3575 9.49816C23.2598 9.19789 23.0754 8.93324 22.8276 8.73756C22.5798 8.54188 22.2796 8.42393 21.9649 8.39855L16.2032 7.9337L13.9786 2.55382C13.8582 2.26067 13.6535 2.00992 13.3903 1.83345C13.1271 1.65697 12.8174 1.56274 12.5005 1.56274C12.1837 1.56274 11.8739 1.65697 11.6107 1.83345C11.3476 2.00992 11.1428 2.26067 11.0225 2.55382L8.79984 7.93273L3.03519 8.39855C2.71993 8.42521 2.41956 8.54431 2.17169 8.74093C1.92382 8.93756 1.73949 9.20295 1.64179 9.50387C1.54409 9.80479 1.53737 10.1279 1.62246 10.4326C1.70756 10.7373 1.88068 11.0101 2.12015 11.2169L6.51468 15.0089L5.17582 20.6788C5.10094 20.9869 5.11927 21.3102 5.22849 21.6078C5.33771 21.9054 5.53289 22.1638 5.78925 22.3503C6.04562 22.5367 6.3516 22.6428 6.66837 22.6551C6.98514 22.6673 7.2984 22.5852 7.56839 22.4191L12.5 19.3839L17.4346 22.4191C17.7047 22.5832 18.0173 22.6638 18.3331 22.6506C18.6489 22.6374 18.9537 22.5311 19.2092 22.3451C19.4647 22.159 19.6594 21.9015 19.7689 21.605C19.8783 21.3085 19.8976 20.9863 19.8243 20.6788L18.4805 15.0079L22.875 11.2159C23.1164 11.0095 23.2912 10.7361 23.377 10.4303C23.4629 10.1245 23.4561 9.80008 23.3575 9.49816ZM21.8594 10.0323L17.1036 14.1339C16.9951 14.2274 16.9144 14.3489 16.8703 14.4851C16.8262 14.6213 16.8204 14.7671 16.8536 14.9064L18.3067 21.0392C18.3104 21.0476 18.3108 21.0572 18.3077 21.0659C18.3046 21.0746 18.2983 21.0818 18.2901 21.086C18.2725 21.0997 18.2676 21.0968 18.253 21.086L12.9092 17.7999C12.7861 17.7242 12.6445 17.6842 12.5 17.6842C12.3556 17.6842 12.2139 17.7242 12.0909 17.7999L6.74711 21.088C6.73246 21.0968 6.72855 21.0997 6.71 21.088C6.70175 21.0838 6.69544 21.0766 6.69235 21.0679C6.68926 21.0592 6.68963 21.0496 6.69339 21.0411L8.14652 14.9083C8.17964 14.769 8.17383 14.6233 8.12975 14.4871C8.08566 14.3508 8.00498 14.2293 7.89652 14.1359L3.14066 10.0343C3.12894 10.0245 3.1182 10.0157 3.12796 9.98546C3.13773 9.95519 3.14554 9.95909 3.16019 9.95714L9.40238 9.45323C9.54555 9.44095 9.68256 9.38942 9.79835 9.30431C9.91413 9.2192 10.0042 9.1038 10.0586 8.97081L12.4629 3.14952C12.4707 3.13292 12.4737 3.12511 12.4971 3.12511C12.5205 3.12511 12.5235 3.13292 12.5313 3.14952L14.9414 8.97081C14.9964 9.10385 15.087 9.21912 15.2033 9.30391C15.3197 9.38869 15.4571 9.43969 15.6006 9.45128L21.8428 9.95519C21.8575 9.95519 21.8662 9.95519 21.875 9.98351C21.8838 10.0118 21.875 10.0226 21.8594 10.0323Z" fill="#FD9927"/>
</svg>
