<svg width="15" height="15" viewBox="0 0 15 15" fill="none" xmlns="http://www.w3.org/2000/svg">
<path d="M14.0144 5.69884C13.9558 5.51868 13.8452 5.35989 13.6965 5.24248C13.5478 5.12508 13.3677 5.0543 13.1789 5.03907L9.72182 4.76017L8.38706 1.53224C8.31487 1.35635 8.19202 1.2059 8.03411 1.10001C7.87619 0.994128 7.69037 0.937592 7.50024 0.937592C7.31012 0.937592 7.12429 0.994128 6.96638 1.10001C6.80847 1.2059 6.68561 1.35635 6.61342 1.53224L5.27983 4.75958L1.82104 5.03907C1.63189 5.05507 1.45166 5.12653 1.30294 5.24451C1.15422 5.36248 1.04362 5.52172 0.985003 5.70227C0.926383 5.88282 0.922348 6.07666 0.973404 6.25949C1.02446 6.44233 1.12834 6.60603 1.27202 6.73009L3.90874 9.00528L3.10542 12.4072C3.06049 12.5921 3.07149 12.7861 3.13702 12.9646C3.20255 13.1432 3.31966 13.2982 3.47348 13.4101C3.6273 13.522 3.81089 13.5856 4.00095 13.593C4.19101 13.6003 4.37897 13.551 4.54096 13.4514L7.49995 11.6303L10.4607 13.4514C10.6227 13.5499 10.8103 13.5982 10.9998 13.5903C11.1893 13.5824 11.3722 13.5186 11.5255 13.407C11.6788 13.2954 11.7956 13.1409 11.8613 12.963C11.9269 12.7851 11.9385 12.5917 11.8945 12.4072L11.0882 9.0047L13.7249 6.7295C13.8698 6.60565 13.9746 6.44159 14.0261 6.25811C14.0777 6.07464 14.0736 5.87999 14.0144 5.69884ZM13.1156 6.01935L10.2621 8.48028C10.197 8.53637 10.1486 8.60927 10.1221 8.69101C10.0957 8.77274 10.0922 8.86018 10.1121 8.94376L10.9839 12.6234C10.9862 12.6285 10.9864 12.6343 10.9846 12.6395C10.9827 12.6447 10.9789 12.6491 10.974 12.6516C10.9634 12.6598 10.9605 12.658 10.9517 12.6516L7.74546 10.6799C7.67161 10.6345 7.58663 10.6105 7.49995 10.6105C7.41327 10.6105 7.32828 10.6345 7.25444 10.6799L4.04819 12.6527C4.0394 12.658 4.03706 12.6598 4.02592 12.6527C4.02098 12.6502 4.01719 12.6459 4.01534 12.6407C4.01348 12.6354 4.01371 12.6297 4.01596 12.6246L4.88784 8.94493C4.90771 8.86135 4.90423 8.77391 4.87777 8.69218C4.85132 8.61044 4.80291 8.53755 4.73784 8.48146L1.88432 6.02052C1.87729 6.01466 1.87085 6.00939 1.87671 5.99122C1.88257 5.97306 1.88725 5.9754 1.89604 5.97423L5.64135 5.67189C5.72726 5.66452 5.80947 5.6336 5.87893 5.58253C5.9484 5.53146 6.00244 5.46222 6.0351 5.38243L7.47768 1.88966C7.48237 1.8797 7.48413 1.87501 7.49819 1.87501C7.51225 1.87501 7.51401 1.8797 7.5187 1.88966L8.96479 5.38243C8.99776 5.46226 9.05214 5.53142 9.12193 5.58229C9.19173 5.63316 9.27422 5.66376 9.3603 5.67071L13.1056 5.97306C13.1144 5.97306 13.1197 5.97306 13.1249 5.99005C13.1302 6.00704 13.1249 6.01349 13.1156 6.01935Z" fill="#FCE551"/>
<path d="M13.1156 6.01935L10.2621 8.48028C10.197 8.53637 10.1486 8.60927 10.1221 8.69101C10.0957 8.77274 10.0922 8.86018 10.1121 8.94376L10.9839 12.6234C10.9862 12.6285 10.9864 12.6343 10.9846 12.6395C10.9827 12.6447 10.9789 12.6491 10.974 12.6516C10.9634 12.6598 10.9605 12.658 10.9517 12.6516L7.74546 10.6799C7.67161 10.6345 7.58663 10.6105 7.49995 10.6105C7.41327 10.6105 7.32828 10.6345 7.25444 10.6799L4.04819 12.6527C4.0394 12.658 4.03706 12.6598 4.02592 12.6527C4.02098 12.6502 4.01719 12.6459 4.01534 12.6407C4.01348 12.6354 4.01371 12.6297 4.01596 12.6246L4.88784 8.94493C4.90771 8.86135 4.90423 8.77391 4.87777 8.69218C4.85132 8.61044 4.80291 8.53755 4.73784 8.48146L1.88432 6.02052C1.87729 6.01466 1.87085 6.00939 1.87671 5.99122C1.88257 5.97306 1.88725 5.9754 1.89604 5.97423L5.64135 5.67189C5.72726 5.66452 5.80947 5.6336 5.87893 5.58253C5.9484 5.53146 6.00244 5.46222 6.0351 5.38243L7.47768 1.88966C7.48237 1.8797 7.48413 1.87501 7.49819 1.87501C7.51225 1.87501 7.51401 1.8797 7.5187 1.88966L8.96479 5.38243C8.99776 5.46226 9.05214 5.53142 9.12193 5.58229C9.19173 5.63316 9.27422 5.66376 9.3603 5.67071L13.1056 5.97306C13.1144 5.97306 13.1197 5.97306 13.1249 5.99005C13.1302 6.00704 13.1249 6.01349 13.1156 6.01935Z" fill="#FCE551"/>
</svg>
