<svg width="30" height="30" viewBox="0 0 30 30" fill="none" xmlns="http://www.w3.org/2000/svg">
<path d="M27.1875 11.25C27.188 11.1628 27.1762 11.076 27.1523 10.9922L25.4707 5.10937C25.3577 4.71904 25.1214 4.37574 24.7972 4.13073C24.473 3.88573 24.0782 3.75217 23.6719 3.75H6.32813C5.92176 3.75217 5.527 3.88573 5.20279 4.13073C4.87859 4.37574 4.64233 4.71904 4.5293 5.10937L2.84883 10.9922C2.82462 11.076 2.81239 11.1628 2.8125 11.25V13.125C2.8125 13.8527 2.98193 14.5704 3.30737 15.2213C3.63282 15.8722 4.10533 16.4384 4.6875 16.875V25.3125C4.6875 25.5611 4.78627 25.7996 4.96209 25.9754C5.1379 26.1512 5.37636 26.25 5.625 26.25H24.375C24.6236 26.25 24.8621 26.1512 25.0379 25.9754C25.2137 25.7996 25.3125 25.5611 25.3125 25.3125V16.875C25.8947 16.4384 26.3672 15.8722 26.6926 15.2213C27.0181 14.5704 27.1875 13.8527 27.1875 13.125V11.25ZM6.32813 5.625H23.6719L25.0102 10.3125H4.99336L6.32813 5.625ZM12.1875 12.1875H17.8125V13.125C17.8125 13.8709 17.5162 14.5863 16.9887 15.1137C16.4613 15.6412 15.7459 15.9375 15 15.9375C14.2541 15.9375 13.5387 15.6412 13.0113 15.1137C12.4838 14.5863 12.1875 13.8709 12.1875 13.125V12.1875ZM10.3125 12.1875V13.125C10.3123 13.6086 10.1874 14.0841 9.94991 14.5054C9.71238 14.9266 9.37022 15.2796 8.95648 15.53C8.54274 15.7805 8.07141 15.92 7.58801 15.9351C7.10461 15.9503 6.62547 15.8405 6.19688 15.6164C6.13166 15.5656 6.05993 15.5239 5.98359 15.4922C5.58642 15.2379 5.25955 14.8879 5.03307 14.4742C4.80658 14.0606 4.68775 13.5966 4.6875 13.125V12.1875H10.3125ZM23.4375 24.375H6.5625V17.7188C6.87113 17.781 7.18517 17.8124 7.5 17.8125C8.22771 17.8125 8.94543 17.6431 9.59631 17.3176C10.2472 16.9922 10.8134 16.5197 11.25 15.9375C11.6866 16.5197 12.2528 16.9922 12.9037 17.3176C13.5546 17.6431 14.2723 17.8125 15 17.8125C15.7277 17.8125 16.4454 17.6431 17.0963 17.3176C17.7472 16.9922 18.3134 16.5197 18.75 15.9375C19.1866 16.5197 19.7528 16.9922 20.4037 17.3176C21.0546 17.6431 21.7723 17.8125 22.5 17.8125C22.8148 17.8124 23.1289 17.781 23.4375 17.7188V24.375ZM24.0152 15.4922C23.9399 15.5239 23.869 15.5653 23.8043 15.6152C23.3758 15.8396 22.8966 15.9496 22.4131 15.9346C21.9297 15.9197 21.4582 15.7803 21.0443 15.5299C20.6305 15.2796 20.2881 14.9267 20.0505 14.5054C19.8128 14.0842 19.6878 13.6087 19.6875 13.125V12.1875H25.3125V13.125C25.3121 13.5967 25.1931 14.0607 24.9664 14.4744C24.7397 14.8881 24.4126 15.2381 24.0152 15.4922Z" fill="#454545"/>
</svg>
