<svg width="1140" height="624" viewBox="0 0 1140 624" fill="none" xmlns="http://www.w3.org/2000/svg">
<path d="M1130 0C1131.09 3.18235e-06 1132.14 0.1769 1133.12 0.5H1114.68C1113.85 0.5 1113.38 1.45867 1113.89 2.11523L1129.41 21.9912C1129.81 22.5036 1130.59 22.5035 1130.99 21.9912L1140 10.4531V613.266L1131.99 603.009C1131.59 602.496 1130.81 602.496 1130.41 603.009L1114.89 622.885C1114.62 623.235 1114.62 623.669 1114.82 624H1113.01C1113.2 623.669 1113.2 623.235 1112.93 622.885L1097.41 603.009C1097.01 602.496 1096.23 602.496 1095.83 603.009L1080.31 622.885C1080.04 623.235 1080.04 623.669 1080.23 624H1078.42C1078.61 623.669 1078.62 623.235 1078.35 622.885L1062.83 603.009C1062.42 602.496 1061.65 602.496 1061.25 603.009L1045.73 622.885C1045.45 623.235 1045.46 623.669 1045.65 624H1043.84C1044.03 623.669 1044.04 623.235 1043.77 622.885L1028.24 603.009C1027.84 602.496 1027.07 602.496 1026.67 603.009L1011.14 622.885C1010.87 623.235 1010.88 623.669 1011.07 624H1009.26C1009.45 623.669 1009.46 623.235 1009.18 622.885L993.661 603.009C993.261 602.496 992.485 602.496 992.085 603.009L976.562 622.885C976.289 623.235 976.297 623.669 976.487 624H974.678C974.868 623.669 974.875 623.235 974.602 622.885L959.079 603.009C958.679 602.496 957.903 602.496 957.503 603.009L941.98 622.885C941.707 623.235 941.714 623.669 941.905 624H940.096C940.286 623.669 940.293 623.235 940.02 622.885L924.497 603.009C924.097 602.496 923.321 602.496 922.921 603.009L907.398 622.885C907.125 623.235 907.132 623.669 907.323 624H905.195C905.386 623.669 905.392 623.235 905.119 622.885L889.597 603.009C889.196 602.496 888.421 602.496 888.021 603.009L872.498 622.885C872.225 623.235 872.232 623.669 872.423 624H870.294C870.485 623.669 870.491 623.235 870.218 622.885L854.695 603.009C854.295 602.496 853.519 602.496 853.119 603.009L837.597 622.885C837.323 623.235 837.331 623.669 837.521 624H835.394C835.584 623.669 835.591 623.235 835.317 622.885L819.795 603.009C819.395 602.496 818.619 602.496 818.219 603.009L802.696 622.885C802.423 623.235 802.43 623.669 802.621 624H800.493C800.684 623.669 800.69 623.235 800.417 622.885L784.895 603.009C784.494 602.496 783.719 602.496 783.318 603.009L767.796 622.885C767.523 623.235 767.53 623.669 767.721 624H765.592C765.782 623.669 765.789 623.235 765.516 622.885L749.993 603.009C749.593 602.496 748.817 602.496 748.417 603.009L732.895 622.885C732.621 623.235 732.629 623.669 732.819 624H730.691C730.882 623.669 730.889 623.235 730.615 622.885L715.093 603.009C714.692 602.496 713.917 602.496 713.517 603.009L697.994 622.885C697.721 623.235 697.728 623.669 697.919 624H695.791C695.982 623.669 695.988 623.235 695.715 622.885L680.192 603.009C679.792 602.496 679.017 602.496 678.616 603.009L663.094 622.885C662.82 623.235 662.828 623.669 663.019 624H660.89C661.08 623.669 661.088 623.235 660.814 622.885L645.292 603.009C644.892 602.496 644.116 602.497 643.716 603.009L628.192 622.885C627.919 623.235 627.927 623.669 628.117 624H625.989C626.18 623.669 626.186 623.235 625.913 622.885L610.391 603.009C609.99 602.496 609.215 602.496 608.814 603.009L593.292 622.885C593.019 623.235 593.026 623.669 593.217 624H591.089C591.279 623.669 591.286 623.235 591.013 622.885L575.49 603.009C575.09 602.496 574.314 602.496 573.914 603.009L558.392 622.885C558.118 623.235 558.126 623.669 558.316 624H556.188C556.378 623.669 556.385 623.235 556.112 622.885L540.59 603.009C540.19 602.496 539.414 602.497 539.014 603.009L523.49 622.885C523.217 623.235 523.224 623.669 523.415 624H521.287C521.478 623.669 521.485 623.235 521.212 622.885L505.689 603.009C505.289 602.496 504.514 602.497 504.113 603.009L488.59 622.885C488.317 623.235 488.324 623.669 488.515 624H486.386C486.576 623.669 486.584 623.235 486.311 622.885L470.788 603.009C470.388 602.496 469.612 602.497 469.212 603.009L453.688 622.885C453.415 623.235 453.423 623.669 453.613 624H451.485C451.676 623.669 451.683 623.235 451.41 622.885L435.888 603.009C435.487 602.496 434.712 602.497 434.312 603.009L418.788 622.885C418.515 623.235 418.522 623.669 418.713 624H416.585C416.776 623.669 416.783 623.235 416.51 622.885L400.987 603.009C400.587 602.496 399.812 602.497 399.411 603.009L383.888 622.885C383.615 623.235 383.622 623.669 383.812 624H381.685C381.875 623.669 381.882 623.235 381.608 622.885L366.086 603.009C365.686 602.496 364.91 602.496 364.51 603.009L348.987 622.885C348.714 623.235 348.721 623.669 348.912 624H346.783C346.974 623.669 346.981 623.235 346.708 622.885L331.186 603.009C330.785 602.496 330.01 602.497 329.609 603.009L314.086 622.885C313.813 623.235 313.82 623.669 314.011 624H311.883C312.074 623.669 312.081 623.235 311.808 622.885L296.285 603.009C295.885 602.496 295.109 602.497 294.709 603.009L279.186 622.885C278.912 623.235 278.92 623.669 279.11 624H276.982C277.173 623.669 277.18 623.235 276.906 622.885L261.384 603.009C260.983 602.496 260.208 602.496 259.808 603.009L244.285 622.885C244.012 623.235 244.019 623.669 244.21 624H242.082C242.273 623.669 242.279 623.235 242.006 622.885L226.483 603.009C226.083 602.496 225.308 602.496 224.907 603.009L209.385 622.885C209.111 623.235 209.119 623.669 209.31 624H207.181C207.371 623.669 207.379 623.235 207.105 622.885L191.583 603.009C191.183 602.496 190.407 602.497 190.007 603.009L174.483 622.885C174.21 623.235 174.218 623.669 174.408 624H172.28C172.471 623.669 172.477 623.235 172.204 622.885L156.682 603.009C156.281 602.496 155.506 602.496 155.105 603.009L139.583 622.885C139.31 623.235 139.317 623.669 139.508 624H137.38C137.57 623.669 137.577 623.235 137.304 622.885L121.781 603.009C121.381 602.496 120.605 602.496 120.205 603.009L104.683 622.885C104.409 623.235 104.417 623.669 104.607 624H102.479C102.67 623.669 102.677 623.235 102.403 622.885L86.8809 603.009C86.4805 602.496 85.705 602.496 85.3047 603.009L69.7822 622.885C69.5089 623.235 69.5162 623.669 69.707 624H67.5781C67.7687 623.669 67.7752 623.235 67.502 622.885L51.9795 603.009C51.5791 602.496 50.8037 602.496 50.4033 603.009L34.8809 622.885C34.6075 623.235 34.6149 623.669 34.8057 624H32.6777C32.8684 623.669 32.8748 623.235 32.6016 622.885L17.0791 603.009C16.6787 602.496 15.9033 602.496 15.5029 603.009L2.11621 620.148C0.79144 618.452 1.28505e-07 616.319 0 614V10C2.33781e-06 8.21071 0.471737 6.53219 1.29492 5.0791L14.5029 21.9912C14.9033 22.5036 15.6787 22.5035 16.0791 21.9912L31.6016 2.11523C32.1143 1.45867 31.6466 0.5 30.8135 0.5H6.87598C7.85908 0.176901 8.90878 7.95591e-09 10 0H1130ZM34.6689 0.5C33.8359 0.5 33.3682 1.45867 33.8809 2.11523L49.4033 21.9912C49.8037 22.5036 50.5791 22.5035 50.9795 21.9912L66.502 2.11523C67.0147 1.45867 66.5469 0.5 65.7139 0.5H34.6689ZM69.5703 0.5C68.7373 0.5 68.2695 1.45867 68.7822 2.11523L84.3047 21.9912C84.705 22.5036 85.4805 22.5035 85.8809 21.9912L101.403 2.11523C101.916 1.45867 101.448 0.5 100.615 0.5H69.5703ZM104.471 0.5C103.638 0.5 103.17 1.45867 103.683 2.11523L119.205 21.9912C119.605 22.5036 120.381 22.5035 120.781 21.9912L136.304 2.11523C136.816 1.45867 136.349 0.5 135.516 0.5H104.471ZM139.371 0.5C138.538 0.5 138.07 1.45867 138.583 2.11523L154.105 21.9912C154.506 22.5036 155.281 22.5035 155.682 21.9912L171.204 2.11523C171.717 1.45867 171.249 0.5 170.416 0.5H139.371ZM174.271 0.5C173.439 0.500209 172.971 1.45875 173.483 2.11523L189.007 21.9912C189.407 22.5034 190.183 22.5037 190.583 21.9912L206.105 2.11523C206.618 1.45871 206.15 0.500087 205.317 0.5H174.271ZM209.173 0.5C208.34 0.5 207.872 1.45867 208.385 2.11523L223.907 21.9912C224.308 22.5036 225.083 22.5035 225.483 21.9912L241.006 2.11523C241.519 1.45867 241.051 0.5 240.218 0.5H209.173ZM244.073 0.5C243.24 0.5 242.772 1.45867 243.285 2.11523L258.808 21.9912C259.208 22.5036 259.983 22.5035 260.384 21.9912L275.906 2.11523C276.419 1.45867 275.951 0.5 275.118 0.5H244.073ZM278.974 0.5C278.141 0.500209 277.673 1.45875 278.186 2.11523L293.709 21.9912C294.109 22.5034 294.885 22.5037 295.285 21.9912L310.808 2.11523C311.32 1.45871 310.852 0.500087 310.02 0.5H278.974ZM313.874 0.5C313.041 0.500209 312.574 1.45875 313.086 2.11523L328.609 21.9912C329.01 22.5034 329.785 22.5037 330.186 21.9912L345.708 2.11523C346.22 1.45871 345.753 0.500087 344.92 0.5H313.874ZM348.775 0.5C347.942 0.5 347.475 1.45867 347.987 2.11523L363.51 21.9912C363.91 22.5036 364.686 22.5035 365.086 21.9912L380.608 2.11523C381.121 1.45867 380.653 0.5 379.82 0.5H348.775ZM383.676 0.5C382.843 0.500209 382.375 1.45875 382.888 2.11523L398.411 21.9912C398.812 22.5034 399.587 22.5037 399.987 21.9912L415.51 2.11523C416.022 1.45871 415.555 0.500087 414.722 0.5H383.676ZM418.576 0.5C417.743 0.500209 417.276 1.45875 417.788 2.11523L433.312 21.9912C433.712 22.5034 434.487 22.5037 434.888 21.9912L450.41 2.11523C450.923 1.45871 450.455 0.500087 449.622 0.5H418.576ZM453.477 0.5C452.644 0.500209 452.176 1.45875 452.688 2.11523L468.212 21.9912C468.612 22.5034 469.388 22.5037 469.788 21.9912L485.311 2.11523C485.823 1.45871 485.355 0.500087 484.522 0.5H453.477ZM488.378 0.5C487.545 0.500209 487.077 1.45875 487.59 2.11523L503.113 21.9912C503.514 22.5034 504.289 22.5037 504.689 21.9912L520.212 2.11523C520.724 1.45871 520.257 0.500087 519.424 0.5H488.378ZM523.278 0.5C522.446 0.500209 521.978 1.45875 522.49 2.11523L538.014 21.9912C538.414 22.5034 539.19 22.5037 539.59 21.9912L555.112 2.11523C555.625 1.45871 555.157 0.500087 554.324 0.5H523.278ZM558.18 0.5C557.347 0.5 556.879 1.45867 557.392 2.11523L572.914 21.9912C573.314 22.5036 574.09 22.5035 574.49 21.9912L590.013 2.11523C590.525 1.45867 590.058 0.5 589.225 0.5H558.18ZM593.08 0.5C592.247 0.5 591.779 1.45867 592.292 2.11523L607.814 21.9912C608.215 22.5036 608.99 22.5035 609.391 21.9912L624.913 2.11523C625.426 1.45867 624.958 0.5 624.125 0.5H593.08ZM627.98 0.5C627.148 0.500209 626.68 1.45875 627.192 2.11523L642.716 21.9912C643.116 22.5034 643.892 22.5037 644.292 21.9912L659.814 2.11523C660.327 1.45871 659.859 0.500087 659.026 0.5H627.98ZM662.882 0.5C662.049 0.5 661.581 1.45867 662.094 2.11523L677.616 21.9912C678.017 22.5036 678.792 22.5035 679.192 21.9912L694.715 2.11523C695.228 1.45867 694.76 0.5 693.927 0.5H662.882ZM697.782 0.5C696.949 0.5 696.481 1.45867 696.994 2.11523L712.517 21.9912C712.917 22.5036 713.692 22.5035 714.093 21.9912L729.615 2.11523C730.128 1.45867 729.66 0.5 728.827 0.5H697.782ZM732.683 0.5C731.85 0.5 731.382 1.45867 731.895 2.11523L747.417 21.9912C747.817 22.5036 748.593 22.5035 748.993 21.9912L764.516 2.11523C765.028 1.45867 764.561 0.5 763.728 0.5H732.683ZM767.584 0.5C766.751 0.5 766.283 1.45867 766.796 2.11523L782.318 21.9912C782.719 22.5036 783.494 22.5035 783.895 21.9912L799.417 2.11523C799.93 1.45867 799.462 0.5 798.629 0.5H767.584ZM802.484 0.5C801.651 0.5 801.184 1.45867 801.696 2.11523L817.219 21.9912C817.619 22.5036 818.395 22.5035 818.795 21.9912L834.317 2.11523C834.83 1.45867 834.362 0.5 833.529 0.5H802.484ZM837.385 0.5C836.552 0.5 836.084 1.45867 836.597 2.11523L852.119 21.9912C852.519 22.5036 853.295 22.5035 853.695 21.9912L869.218 2.11523C869.731 1.45867 869.263 0.5 868.43 0.5H837.385ZM872.286 0.5C871.453 0.5 870.985 1.45867 871.498 2.11523L887.021 21.9912C887.421 22.5036 888.196 22.5035 888.597 21.9912L904.119 2.11523C904.632 1.45867 904.164 0.5 903.331 0.5H872.286ZM907.187 0.5C906.353 0.5 905.886 1.45867 906.398 2.11523L921.921 21.9912C922.321 22.5036 923.097 22.5035 923.497 21.9912L939.02 2.11523C939.532 1.45867 939.065 0.5 938.231 0.5H907.187ZM941.769 0.5C940.935 0.5 940.468 1.45867 940.98 2.11523L956.503 21.9912C956.903 22.5036 957.679 22.5035 958.079 21.9912L973.602 2.11523C974.114 1.45867 973.647 0.5 972.813 0.5H941.769ZM976.351 0.5C975.518 0.5 975.05 1.45867 975.562 2.11523L991.085 21.9912C991.485 22.5036 992.261 22.5035 992.661 21.9912L1008.18 2.11523C1008.7 1.45867 1008.23 0.5 1007.4 0.5H976.351ZM1010.93 0.5C1010.1 0.5 1009.63 1.45867 1010.14 2.11523L1025.67 21.9912C1026.07 22.5036 1026.84 22.5035 1027.24 21.9912L1042.77 2.11523C1043.28 1.45867 1042.81 0.5 1041.98 0.5H1010.93ZM1045.51 0.5C1044.68 0.5 1044.21 1.45867 1044.73 2.11523L1060.25 21.9912C1060.65 22.5036 1061.42 22.5035 1061.83 21.9912L1077.35 2.11523C1077.86 1.45867 1077.39 0.5 1076.56 0.5H1045.51ZM1080.1 0.5C1079.26 0.5 1078.8 1.45867 1079.31 2.11523L1094.83 21.9912C1095.23 22.5036 1096.01 22.5035 1096.41 21.9912L1111.93 2.11523C1112.44 1.45867 1111.97 0.5 1111.14 0.5H1080.1Z" fill="#F8F8F8"/>
</svg>
