<svg width="45" height="45" viewBox="0 0 45 45" fill="none" xmlns="http://www.w3.org/2000/svg">
<path d="M40.5912 37.266C37.9141 32.6377 33.7885 29.3189 28.9738 27.7457C31.3554 26.3279 33.2057 24.1676 34.2406 21.5965C35.2756 19.0254 35.4379 16.1856 34.7027 13.5133C33.9674 10.841 32.3754 8.48393 30.1709 6.80404C27.9664 5.12416 25.2714 4.21436 22.4998 4.21436C19.7282 4.21436 17.0333 5.12416 14.8288 6.80404C12.6243 8.48393 11.0322 10.841 10.297 13.5133C9.56177 16.1856 9.72409 19.0254 10.759 21.5965C11.7939 24.1676 13.6443 26.3279 16.0258 27.7457C11.2111 29.3172 7.08556 32.6359 4.40841 37.266C4.31024 37.4261 4.24512 37.6042 4.2169 37.7899C4.18868 37.9755 4.19793 38.165 4.2441 38.347C4.29027 38.529 4.37244 38.6999 4.48574 38.8497C4.59905 38.9994 4.7412 39.125 4.90381 39.2189C5.06642 39.3128 5.24619 39.3732 5.43253 39.3966C5.61886 39.4199 5.80798 39.4057 5.98872 39.3547C6.16947 39.3038 6.33818 39.2171 6.4849 39.0999C6.63161 38.9827 6.75337 38.8373 6.84298 38.6723C10.1547 32.9488 16.0082 29.5316 22.4998 29.5316C28.9914 29.5316 34.8449 32.9488 38.1567 38.6723C38.2463 38.8373 38.368 38.9827 38.5147 39.0999C38.6615 39.2171 38.8302 39.3038 39.0109 39.3547C39.1917 39.4057 39.3808 39.4199 39.5671 39.3966C39.7534 39.3732 39.9332 39.3128 40.0958 39.2189C40.2584 39.125 40.4006 38.9994 40.5139 38.8497C40.6272 38.6999 40.7094 38.529 40.7555 38.347C40.8017 38.165 40.811 37.9755 40.7827 37.7899C40.7545 37.6042 40.6894 37.4261 40.5912 37.266ZM12.6561 16.8754C12.6561 14.9285 13.2334 13.0253 14.315 11.4065C15.3967 9.7877 16.9341 8.526 18.7328 7.78095C20.5315 7.0359 22.5107 6.84096 24.4202 7.22078C26.3297 7.60061 28.0837 8.53813 29.4604 9.9148C30.8371 11.2915 31.7746 13.0455 32.1544 14.955C32.5342 16.8645 32.3393 18.8437 31.5943 20.6424C30.8492 22.4411 29.5875 23.9785 27.9687 25.0602C26.3499 26.1418 24.4467 26.7191 22.4998 26.7191C19.89 26.7163 17.3878 25.6783 15.5423 23.8329C13.6969 21.9874 12.6589 19.4853 12.6561 16.8754Z" fill="white"/>
</svg>
